<svg id="visual" viewBox="0 0 960 300" width="960" height="300" xmlns="http://www.w3.org/2000/svg" xmlns:xlink="http://www.w3.org/1999/xlink" version="1.1"><rect x="0" y="0" width="960" height="300" fill="#042147"></rect><path d="M0 53L22.8 59.3C45.7 65.7 91.3 78.3 137 76.3C182.7 74.3 228.3 57.7 274 49C319.7 40.3 365.3 39.7 411.2 40.8C457 42 503 45 548.8 48.7C594.7 52.3 640.3 56.7 686 63C731.7 69.3 777.3 77.7 823 81C868.7 84.3 914.3 82.7 937.2 81.8L960 81L960 301L937.2 301C914.3 301 868.7 301 823 301C777.3 301 731.7 301 686 301C640.3 301 594.7 301 548.8 301C503 301 457 301 411.2 301C365.3 301 319.7 301 274 301C228.3 301 182.7 301 137 301C91.3 301 45.7 301 22.8 301L0 301Z" fill="#042147"></path><path d="M0 135L22.8 129.3C45.7 123.7 91.3 112.3 137 110.2C182.7 108 228.3 115 274 114.7C319.7 114.3 365.3 106.7 411.2 110.3C457 114 503 129 548.8 126.2C594.7 123.3 640.3 102.7 686 93.3C731.7 84 777.3 86 823 87.2C868.7 88.3 914.3 88.7 937.2 88.8L960 89L960 301L937.2 301C914.3 301 868.7 301 823 301C777.3 301 731.7 301 686 301C640.3 301 594.7 301 548.8 301C503 301 457 301 411.2 301C365.3 301 319.7 301 274 301C228.3 301 182.7 301 137 301C91.3 301 45.7 301 22.8 301L0 301Z" fill="#1b3963"></path><path d="M0 175L22.8 171.5C45.7 168 91.3 161 137 152.3C182.7 143.7 228.3 133.3 274 127C319.7 120.7 365.3 118.3 411.2 124.2C457 130 503 144 548.8 153C594.7 162 640.3 166 686 167.7C731.7 169.3 777.3 168.7 823 160.3C868.7 152 914.3 136 937.2 128L960 120L960 301L937.2 301C914.3 301 868.7 301 823 301C777.3 301 731.7 301 686 301C640.3 301 594.7 301 548.8 301C503 301 457 301 411.2 301C365.3 301 319.7 301 274 301C228.3 301 182.7 301 137 301C91.3 301 45.7 301 22.8 301L0 301Z" fill="#305381"></path><path d="M0 171L22.8 176.2C45.7 181.3 91.3 191.7 137 195.3C182.7 199 228.3 196 274 189C319.7 182 365.3 171 411.2 167.5C457 164 503 168 548.8 176C594.7 184 640.3 196 686 194.8C731.7 193.7 777.3 179.3 823 173.5C868.7 167.7 914.3 170.3 937.2 171.7L960 173L960 301L937.2 301C914.3 301 868.7 301 823 301C777.3 301 731.7 301 686 301C640.3 301 594.7 301 548.8 301C503 301 457 301 411.2 301C365.3 301 319.7 301 274 301C228.3 301 182.7 301 137 301C91.3 301 45.7 301 22.8 301L0 301Z" fill="#446e9f"></path><path d="M0 230L22.8 232.2C45.7 234.3 91.3 238.7 137 237.2C182.7 235.7 228.3 228.3 274 226.3C319.7 224.3 365.3 227.7 411.2 230.7C457 233.7 503 236.3 548.8 235.5C594.7 234.7 640.3 230.3 686 228.8C731.7 227.3 777.3 228.7 823 226C868.7 223.3 914.3 216.7 937.2 213.3L960 210L960 301L937.2 301C914.3 301 868.7 301 823 301C777.3 301 731.7 301 686 301C640.3 301 594.7 301 548.8 301C503 301 457 301 411.2 301C365.3 301 319.7 301 274 301C228.3 301 182.7 301 137 301C91.3 301 45.7 301 22.8 301L0 301Z" fill="#5a8abe"></path><path d="M0 259L22.8 256.2C45.7 253.3 91.3 247.7 137 247.3C182.7 247 228.3 252 274 253C319.7 254 365.3 251 411.2 250.8C457 250.7 503 253.3 548.8 254.8C594.7 256.3 640.3 256.7 686 259.5C731.7 262.3 777.3 267.7 823 271C868.7 274.3 914.3 275.7 937.2 276.3L960 277L960 301L937.2 301C914.3 301 868.7 301 823 301C777.3 301 731.7 301 686 301C640.3 301 594.7 301 548.8 301C503 301 457 301 411.2 301C365.3 301 319.7 301 274 301C228.3 301 182.7 301 137 301C91.3 301 45.7 301 22.8 301L0 301Z" fill="#6fa8de"></path></svg>